<svg xmlns="http://www.w3.org/2000/svg" viewBox="-1.4599999999999937 139.507 577.9200134277344 296.356"> <g transform="rotate(0 287.5 253.2218671012538)"><svg version="1.1" id="Layer_1" xmlns="http://www.w3.org/2000/svg" xmlns:xlink="http://www.w3.org/1999/xlink" x="188.75" y="209.507" viewBox="129.97752380371094 813.4868774414062 7280.8369140625 3223.099853515625" xml:space="preserve" height="87.4297342025076" width="197.5" preserveAspectRatio="xMinYMin" enable-background="new 0 0 7500 5000" style="overflow: visible;"><path d="M2378.8,1539.7c-10.5,7.9-20.7,16.2-30.8,24.8c277.6-91,555.4-181.2,833.2-271.5c140.7-58.1,653.6-170.4,667.2-329  C3352.9,929.4,2772,1256.7,2378.8,1539.7z M982.1,4036.1c-723-9.5-986-468.6-412.8-983.1c244.2-214.9,531.2-375.4,815.9-530  c383.3-202.4,782.2-374.2,1190.2-520.3c-179.4,6.6-373.7,16.5-532.2-82.1c-69.1-41.5-131.2-115.3-121.2-200.2  c-573.2,185.2-1148.7,365.7-1700.5,608.1c-11.2,31.8-121.2-17.4-83.8-42.5c593.3-198,1188.1-399.1,1786.7-583.8  c57.7-232.6,299.8-354.6,485.5-476.9c283.1-167.1,582.9-318.1,907.4-382.9c176-32.7,364.4-48.4,536.3,12.1  c64.8,25.5,155.7,65.9,160.6,144.8c-10.6,103.5-546.9,224.9-661.1,270.9c-309.4,96.6-619.2,192.1-928.3,289.9  c-44.4,18.5-100.1,19.3-133.6,56.1c-57.1,51.8-233.8,259.6-73.4,276.3c160.4,27.6,324.5,14.3,485.5-0.9  c129.6-13.7,240.3-29.8,362.1-49.7c237.5-64.5,476.2-149.8,722.3-168.6c53.8-3.4,239.1,82.9,168.1,141.6  c-51.2,22.3-107,30.8-161.5,41.3c-436.9,60.9-853.2,201-1269.8,340.2c-577.8,210.4-1147.9,456.5-1662.2,796.6  c-234.5,165-652.4,513.6-450.4,827c193.6,211.7,581.2,187.8,844.6,180.3c660-51.2,1306.3-210.8,1943.6-383.5  c784.3-214.6,1556.1-471.8,2326.8-730.2c604.8-201.7,1211.2-400.3,1818.2-595.7c16.2-5.3,39,5.6,51.7,14.9  c9.7,7.1,23.2,23.4,5.1,29.3c-639.5,206.2-1277.9,416.6-1918.8,619.2c-968.7,304.4-1932.8,628.7-2921.9,861.6  C2042.6,3930.3,1515.7,4045,982.1,4036.1z" style="fill: #284389; fill-opacity: 1;"></path></svg></g> <g transform="rotate(0 287.49999084472654 358.863)"><svg y="351.863" viewBox="1.3700000047683716 4.329999923706055 401.3000183105469 14" x="86.84998168945313" height="14" width="401.3000183105469" style="overflow: visible;"><g fill="#000000" fill-opacity="1" style=""><path d="M6.93 13.94L6.93 14.96L1.37 14.96L1.37 4.97L6.93 4.97L6.93 6.00L2.53 6.00L2.53 9.23L6.68 9.23L6.68 10.24L2.53 10.24L2.53 13.94L6.93 13.94ZM25.09 7.33L25.09 7.33Q26.33 7.33 26.96 7.98Q27.59 8.63 27.59 10.06L27.59 10.06L27.59 14.96L26.46 14.96L26.46 10.11Q26.46 9.20 26.07 8.75Q25.68 8.29 24.91 8.29L24.91 8.29Q23.82 8.29 23.33 8.92Q22.83 9.55 22.83 10.77L22.83 10.77L22.83 14.96L21.71 14.96L21.71 10.11Q21.71 9.50 21.53 9.10Q21.36 8.70 21.01 8.49Q20.67 8.29 20.14 8.29L20.14 8.29Q19.40 8.29 18.94 8.60Q18.49 8.91 18.29 9.51Q18.09 10.12 18.09 11.00L18.09 11.00L18.09 14.96L16.96 14.96L16.96 7.47L17.87 7.47L18.04 8.53L18.10 8.53Q18.33 8.14 18.67 7.88Q19.01 7.61 19.44 7.47Q19.86 7.33 20.34 7.33L20.34 7.33Q21.19 7.33 21.77 7.65Q22.35 7.97 22.61 8.62L22.61 8.62L22.67 8.62Q23.04 7.97 23.68 7.65Q24.32 7.33 25.09 7.33ZM41.42 7.33L41.42 7.33Q42.82 7.33 43.65 8.30Q44.49 9.26 44.49 11.20L44.49 11.20Q44.49 12.48 44.10 13.34Q43.72 14.21 43.03 14.66Q42.33 15.10 41.39 15.10L41.39 15.10Q40.79 15.10 40.34 14.94Q39.89 14.79 39.57 14.52Q39.25 14.25 39.04 13.94L39.04 13.94L38.96 13.94Q38.98 14.21 39.01 14.58Q39.04 14.96 39.04 15.24L39.04 15.24L39.04 18.31L37.90 18.31L37.90 7.47L38.83 7.47L38.98 8.58L39.04 8.58Q39.26 8.24 39.57 7.95Q39.89 7.67 40.34 7.50Q40.79 7.33 41.42 7.33ZM41.22 8.29L41.22 8.29Q40.44 8.29 39.96 8.59Q39.49 8.89 39.27 9.49Q39.05 10.09 39.04 10.99L39.04 10.99L39.04 11.21Q39.04 12.16 39.25 12.82Q39.46 13.47 39.94 13.82Q40.42 14.16 41.23 14.16L41.23 14.16Q41.93 14.16 42.39 13.78Q42.86 13.41 43.09 12.73Q43.32 12.06 43.32 11.18L43.32 11.18Q43.32 9.86 42.80 9.07Q42.29 8.29 41.22 8.29ZM60.90 11.20L60.90 11.20Q60.90 12.13 60.66 12.85Q60.42 13.58 59.97 14.08Q59.52 14.57 58.88 14.84Q58.24 15.10 57.44 15.10L57.44 15.10Q56.68 15.10 56.06 14.84Q55.43 14.57 54.98 14.08Q54.52 13.58 54.27 12.85Q54.02 12.13 54.02 11.20L54.02 11.20Q54.02 9.97 54.44 9.11Q54.86 8.24 55.63 7.79Q56.41 7.33 57.48 7.33L57.48 7.33Q58.51 7.33 59.28 7.79Q60.05 8.25 60.47 9.12Q60.90 9.98 60.90 11.20ZM55.20 11.20L55.20 11.20Q55.20 12.11 55.44 12.77Q55.68 13.43 56.18 13.79Q56.68 14.16 57.46 14.16L57.46 14.16Q58.24 14.16 58.75 13.79Q59.25 13.43 59.49 12.77Q59.73 12.11 59.73 11.20L59.73 11.20Q59.73 10.31 59.49 9.66Q59.25 9.00 58.75 8.65Q58.25 8.29 57.46 8.29L57.46 8.29Q56.29 8.29 55.74 9.06Q55.20 9.84 55.20 11.20ZM78.26 14.95L76.94 14.95L75.61 10.59Q75.52 10.31 75.44 10.04Q75.36 9.77 75.30 9.52Q75.23 9.27 75.18 9.05Q75.13 8.84 75.10 8.68L75.10 8.68L75.05 8.68Q75.02 8.84 74.97 9.05Q74.92 9.27 74.86 9.52Q74.80 9.78 74.72 10.05Q74.64 10.33 74.55 10.61L74.55 10.61L73.15 14.95L71.88 14.95L69.81 7.46L70.99 7.46L72.07 11.59Q72.18 12.00 72.28 12.40Q72.38 12.80 72.45 13.16Q72.52 13.51 72.55 13.77L72.55 13.77L72.61 13.77Q72.65 13.60 72.70 13.36Q72.75 13.12 72.82 12.85Q72.88 12.58 72.96 12.31Q73.03 12.04 73.11 11.80L73.11 11.80L74.49 7.46L75.71 7.46L77.04 11.79Q77.15 12.12 77.25 12.48Q77.34 12.83 77.43 13.16Q77.51 13.49 77.54 13.75L77.54 13.75L77.60 13.75Q77.63 13.52 77.70 13.18Q77.78 12.84 77.87 12.43Q77.97 12.02 78.08 11.59L78.08 11.59L79.18 7.46L80.33 7.46L78.26 14.95ZM92.56 7.33L92.56 7.33Q93.51 7.33 94.20 7.76Q94.88 8.18 95.24 8.94Q95.61 9.71 95.61 10.73L95.61 10.73L95.61 11.43L90.43 11.43Q90.45 12.75 91.09 13.44Q91.72 14.13 92.88 14.13L92.88 14.13Q93.59 14.13 94.14 14Q94.68 13.87 95.27 13.62L95.27 13.62L95.27 14.62Q94.70 14.87 94.15 14.98Q93.59 15.10 92.83 15.10L92.83 15.10Q91.75 15.10 90.95 14.66Q90.14 14.22 89.70 13.36Q89.26 12.51 89.26 11.27L89.26 11.27Q89.26 10.06 89.66 9.18Q90.07 8.29 90.81 7.81Q91.55 7.33 92.56 7.33ZM92.54 8.26L92.54 8.26Q91.63 8.26 91.09 8.86Q90.55 9.45 90.45 10.52L90.45 10.52L94.42 10.52Q94.41 9.85 94.21 9.34Q94.01 8.83 93.60 8.55Q93.19 8.26 92.54 8.26ZM108.92 7.33L108.92 7.33Q109.14 7.33 109.39 7.36Q109.64 7.38 109.83 7.42L109.83 7.42L109.68 8.48Q109.50 8.43 109.27 8.40Q109.05 8.37 108.85 8.37L108.85 8.37Q108.40 8.37 108.00 8.56Q107.60 8.74 107.30 9.07Q107.00 9.41 106.83 9.89Q106.66 10.36 106.66 10.94L106.66 10.94L106.66 14.96L105.51 14.96L105.51 7.47L106.46 7.47L106.58 8.85L106.63 8.85Q106.86 8.44 107.19 8.09Q107.52 7.75 107.95 7.54Q108.38 7.33 108.92 7.33ZM119.04 14.25L119.04 14.25Q119.04 13.77 119.28 13.57Q119.51 13.37 119.84 13.37L119.84 13.37Q120.19 13.37 120.43 13.57Q120.67 13.77 120.67 14.25L120.67 14.25Q120.67 14.72 120.43 14.94Q120.19 15.16 119.84 15.16L119.84 15.16Q119.51 15.16 119.28 14.94Q119.04 14.72 119.04 14.25ZM150.13 14.96L148.93 14.96L147.70 11.79L143.69 11.79L142.47 14.96L141.29 14.96L145.20 4.93L146.25 4.93L150.13 14.96ZM144.08 10.76L147.35 10.76L146.18 7.61Q146.14 7.49 146.05 7.21Q145.96 6.92 145.86 6.62Q145.76 6.32 145.70 6.14L145.70 6.14Q145.63 6.42 145.56 6.70Q145.48 6.97 145.40 7.21Q145.33 7.44 145.27 7.61L145.27 7.61L144.08 10.76ZM161.99 15.10L161.99 15.10Q160.57 15.10 159.74 14.13Q158.91 13.16 158.91 11.25L158.91 11.25Q158.91 9.31 159.75 8.32Q160.60 7.33 162.01 7.33L162.01 7.33Q162.60 7.33 163.05 7.49Q163.49 7.65 163.81 7.91Q164.13 8.18 164.35 8.51L164.35 8.51L164.44 8.51Q164.41 8.30 164.38 7.93Q164.35 7.56 164.35 7.33L164.35 7.33L164.35 4.33L165.49 4.33L165.49 14.96L164.57 14.96L164.40 13.90L164.35 13.90Q164.14 14.23 163.82 14.51Q163.49 14.78 163.04 14.94Q162.60 15.10 161.99 15.10ZM162.17 14.16L162.17 14.16Q163.37 14.16 163.87 13.47Q164.37 12.79 164.37 11.44L164.37 11.44L164.37 11.24Q164.37 9.81 163.89 9.04Q163.42 8.28 162.17 8.28L162.17 8.28Q161.12 8.28 160.60 9.08Q160.08 9.88 160.08 11.27L160.08 11.27Q160.08 12.65 160.60 13.41Q161.11 14.16 162.17 14.16ZM178.81 14.96L177.52 14.96L174.67 7.47L175.89 7.47L177.54 12.00Q177.71 12.47 177.88 13.03Q178.06 13.59 178.13 13.93L178.13 13.93L178.18 13.93Q178.26 13.59 178.45 13.03Q178.64 12.46 178.80 12.00L178.80 12.00L180.45 7.47L181.66 7.47L178.81 14.96ZM197.30 11.20L197.30 11.20Q197.30 12.13 197.06 12.85Q196.82 13.58 196.37 14.08Q195.92 14.57 195.28 14.84Q194.64 15.10 193.84 15.10L193.84 15.10Q193.08 15.10 192.46 14.84Q191.83 14.57 191.38 14.08Q190.92 13.58 190.67 12.85Q190.42 12.13 190.42 11.20L190.42 11.20Q190.42 9.97 190.84 9.11Q191.26 8.24 192.03 7.79Q192.81 7.33 193.88 7.33L193.88 7.33Q194.91 7.33 195.68 7.79Q196.45 8.25 196.87 9.12Q197.30 9.98 197.30 11.20ZM191.60 11.20L191.60 11.20Q191.60 12.11 191.84 12.77Q192.08 13.43 192.58 13.79Q193.08 14.16 193.86 14.16L193.86 14.16Q194.64 14.16 195.14 13.79Q195.65 13.43 195.89 12.77Q196.13 12.11 196.13 11.20L196.13 11.20Q196.13 10.31 195.89 9.66Q195.65 9.00 195.15 8.65Q194.65 8.29 193.86 8.29L193.86 8.29Q192.69 8.29 192.14 9.06Q191.60 9.84 191.60 11.20ZM210.24 15.10L210.24 15.10Q209.23 15.10 208.46 14.68Q207.69 14.27 207.26 13.41Q206.83 12.56 206.83 11.26L206.83 11.26Q206.83 9.90 207.28 9.03Q207.74 8.17 208.53 7.75Q209.33 7.33 210.35 7.33L210.35 7.33Q210.91 7.33 211.44 7.45Q211.96 7.56 212.29 7.73L212.29 7.73L211.95 8.68Q211.61 8.54 211.16 8.44Q210.72 8.33 210.33 8.33L210.33 8.33Q209.55 8.33 209.03 8.66Q208.51 9.00 208.26 9.65Q208.00 10.29 208.00 11.25L208.00 11.25Q208.00 12.15 208.25 12.80Q208.50 13.44 209.00 13.78Q209.49 14.12 210.24 14.12L210.24 14.12Q210.83 14.12 211.31 13.99Q211.79 13.86 212.18 13.69L212.18 13.69L212.18 14.70Q211.80 14.90 211.34 15.00Q210.88 15.10 210.24 15.10ZM224.73 7.35L224.73 7.35Q226.07 7.35 226.72 7.95Q227.37 8.55 227.37 9.87L227.37 9.87L227.37 14.96L226.54 14.96L226.32 13.86L226.27 13.86Q225.96 14.27 225.61 14.54Q225.27 14.82 224.82 14.96Q224.38 15.10 223.73 15.10L223.73 15.10Q223.04 15.10 222.51 14.86Q221.98 14.62 221.68 14.14Q221.38 13.65 221.38 12.91L221.38 12.91Q221.38 11.79 222.26 11.18Q223.15 10.58 224.97 10.53L224.97 10.53L226.26 10.47L226.26 10.01Q226.26 9.04 225.85 8.65Q225.43 8.26 224.67 8.26L224.67 8.26Q224.08 8.26 223.55 8.44Q223.02 8.61 222.54 8.84L222.54 8.84L222.19 7.98Q222.69 7.72 223.35 7.53Q224.01 7.35 224.73 7.35ZM226.25 11.96L226.25 11.27L225.11 11.32Q223.71 11.38 223.13 11.78Q222.56 12.18 222.56 12.92L222.56 12.92Q222.56 13.56 222.95 13.87Q223.34 14.18 223.98 14.18L223.98 14.18Q224.98 14.18 225.61 13.62Q226.25 13.07 226.25 11.96L226.25 11.96ZM240.11 14.17L240.11 14.17Q240.39 14.17 240.68 14.12Q240.98 14.08 241.16 14.01L241.16 14.01L241.16 14.89Q240.96 14.98 240.61 15.04Q240.26 15.10 239.92 15.10L239.92 15.10Q239.33 15.10 238.84 14.89Q238.36 14.68 238.07 14.18Q237.78 13.69 237.78 12.80L237.78 12.80L237.78 8.36L236.71 8.36L236.71 7.81L237.78 7.36L238.24 5.74L238.92 5.74L238.92 7.47L241.11 7.47L241.11 8.36L238.92 8.36L238.92 12.77Q238.92 13.47 239.24 13.82Q239.57 14.17 240.11 14.17ZM253.54 7.33L253.54 7.33Q254.50 7.33 255.18 7.76Q255.87 8.18 256.23 8.94Q256.59 9.71 256.59 10.73L256.59 10.73L256.59 11.43L251.42 11.43Q251.44 12.75 252.07 13.44Q252.71 14.13 253.86 14.13L253.86 14.13Q254.58 14.13 255.12 14Q255.67 13.87 256.26 13.62L256.26 13.62L256.26 14.62Q255.69 14.87 255.13 14.98Q254.58 15.10 253.82 15.10L253.82 15.10Q252.74 15.10 251.93 14.66Q251.13 14.22 250.69 13.36Q250.24 12.51 250.24 11.27L250.24 11.27Q250.24 10.06 250.65 9.18Q251.05 8.29 251.80 7.81Q252.54 7.33 253.54 7.33ZM253.53 8.26L253.53 8.26Q252.62 8.26 252.08 8.86Q251.54 9.45 251.44 10.52L251.44 10.52L255.40 10.52Q255.40 9.85 255.19 9.34Q254.99 8.83 254.58 8.55Q254.17 8.26 253.53 8.26ZM266.33 14.25L266.33 14.25Q266.33 13.77 266.56 13.57Q266.79 13.37 267.13 13.37L267.13 13.37Q267.48 13.37 267.72 13.57Q267.96 13.77 267.96 14.25L267.96 14.25Q267.96 14.72 267.72 14.94Q267.48 15.16 267.13 15.16L267.13 15.16Q266.79 15.16 266.56 14.94Q266.33 14.72 266.33 14.25ZM295.54 14.96L289.95 14.96L289.95 4.97L291.11 4.97L291.11 13.92L295.54 13.92L295.54 14.96ZM305.06 7.47L306.20 7.47L306.20 14.96L305.06 14.96L305.06 7.47ZM305.64 4.67L305.64 4.67Q305.92 4.67 306.12 4.85Q306.33 5.03 306.33 5.41L306.33 5.41Q306.33 5.79 306.12 5.97Q305.92 6.16 305.64 6.16L305.64 6.16Q305.35 6.16 305.15 5.97Q304.96 5.79 304.96 5.41L304.96 5.41Q304.96 5.03 305.15 4.85Q305.35 4.67 305.64 4.67ZM319.00 14.17L319.00 14.17Q319.28 14.17 319.57 14.12Q319.86 14.08 320.05 14.01L320.05 14.01L320.05 14.89Q319.85 14.98 319.50 15.04Q319.15 15.10 318.81 15.10L318.81 15.10Q318.22 15.10 317.73 14.89Q317.25 14.68 316.96 14.18Q316.66 13.69 316.66 12.80L316.66 12.80L316.66 8.36L315.60 8.36L315.60 7.81L316.67 7.36L317.12 5.74L317.81 5.74L317.81 7.47L320.00 7.47L320.00 8.36L317.81 8.36L317.81 12.77Q317.81 13.47 318.13 13.82Q318.46 14.17 319.00 14.17ZM329.55 7.47L330.68 7.47L330.68 14.96L329.55 14.96L329.55 7.47ZM330.13 4.67L330.13 4.67Q330.41 4.67 330.61 4.85Q330.81 5.03 330.81 5.41L330.81 5.41Q330.81 5.79 330.61 5.97Q330.41 6.16 330.13 6.16L330.13 6.16Q329.83 6.16 329.64 5.97Q329.44 5.79 329.44 5.41L329.44 5.41Q329.44 5.03 329.64 4.85Q329.83 4.67 330.13 4.67ZM343.15 18.33L343.15 18.33Q341.68 18.33 340.88 17.78Q340.08 17.23 340.08 16.24L340.08 16.24Q340.08 15.53 340.52 15.03Q340.97 14.53 341.76 14.37L341.76 14.37Q341.47 14.23 341.26 13.96Q341.05 13.69 341.05 13.33L341.05 13.33Q341.05 12.92 341.28 12.61Q341.51 12.30 341.98 12.01L341.98 12.01Q341.40 11.77 341.03 11.20Q340.66 10.63 340.66 9.87L340.66 9.87Q340.66 9.06 341.00 8.49Q341.33 7.92 341.97 7.62Q342.61 7.32 343.51 7.32L343.51 7.32Q343.71 7.32 343.91 7.34Q344.11 7.36 344.29 7.39Q344.48 7.42 344.62 7.46L344.62 7.46L347.19 7.46L347.19 8.19L345.80 8.36Q346.01 8.63 346.15 9.00Q346.28 9.38 346.28 9.84L346.28 9.84Q346.28 10.96 345.52 11.62Q344.77 12.28 343.44 12.28L343.44 12.28Q343.12 12.28 342.80 12.22L342.80 12.22Q342.46 12.41 342.29 12.63Q342.11 12.86 342.11 13.15L342.11 13.15Q342.11 13.37 342.25 13.50Q342.38 13.63 342.63 13.69Q342.89 13.75 343.24 13.75L343.24 13.75L344.56 13.75Q345.78 13.75 346.44 14.26Q347.09 14.77 347.09 15.76L347.09 15.76Q347.09 17.00 346.08 17.66Q345.07 18.33 343.15 18.33ZM343.19 17.44L343.19 17.44Q344.12 17.44 344.73 17.25Q345.34 17.06 345.64 16.71Q345.95 16.36 345.95 15.87L345.95 15.87Q345.95 15.42 345.74 15.19Q345.54 14.96 345.14 14.89Q344.75 14.81 344.17 14.81L344.17 14.81L342.87 14.81Q342.37 14.81 341.99 14.96Q341.61 15.12 341.41 15.43Q341.21 15.74 341.21 16.19L341.21 16.19Q341.21 16.80 341.72 17.12Q342.24 17.44 343.19 17.44ZM343.48 11.45L343.48 11.45Q344.29 11.45 344.70 11.04Q345.11 10.63 345.11 9.84L345.11 9.84Q345.11 9.00 344.70 8.58Q344.28 8.16 343.47 8.16L343.47 8.16Q342.69 8.16 342.27 8.60Q341.85 9.03 341.85 9.86L341.85 9.86Q341.85 10.63 342.27 11.04Q342.69 11.45 343.48 11.45ZM359.44 7.35L359.44 7.35Q360.78 7.35 361.43 7.95Q362.08 8.55 362.08 9.87L362.08 9.87L362.08 14.96L361.26 14.96L361.04 13.86L360.98 13.86Q360.67 14.27 360.33 14.54Q359.98 14.82 359.54 14.96Q359.09 15.10 358.44 15.10L358.44 15.10Q357.76 15.10 357.23 14.86Q356.70 14.62 356.39 14.14Q356.09 13.65 356.09 12.91L356.09 12.91Q356.09 11.79 356.98 11.18Q357.87 10.58 359.68 10.53L359.68 10.53L360.98 10.47L360.98 10.01Q360.98 9.04 360.56 8.65Q360.14 8.26 359.38 8.26L359.38 8.26Q358.80 8.26 358.26 8.44Q357.73 8.61 357.25 8.84L357.25 8.84L356.90 7.98Q357.41 7.72 358.06 7.53Q358.72 7.35 359.44 7.35ZM360.96 11.96L360.96 11.27L359.82 11.32Q358.42 11.38 357.85 11.78Q357.27 12.18 357.27 12.92L357.27 12.92Q357.27 13.56 357.66 13.87Q358.05 14.18 358.69 14.18L358.69 14.18Q359.69 14.18 360.33 13.62Q360.96 13.07 360.96 11.96L360.96 11.96ZM374.82 14.17L374.82 14.17Q375.10 14.17 375.40 14.12Q375.69 14.08 375.87 14.01L375.87 14.01L375.87 14.89Q375.68 14.98 375.32 15.04Q374.97 15.10 374.64 15.10L374.64 15.10Q374.04 15.10 373.56 14.89Q373.07 14.68 372.78 14.18Q372.49 13.69 372.49 12.80L372.49 12.80L372.49 8.36L371.42 8.36L371.42 7.81L372.50 7.36L372.95 5.74L373.63 5.74L373.63 7.47L375.83 7.47L375.83 8.36L373.63 8.36L373.63 12.77Q373.63 13.47 373.96 13.82Q374.28 14.17 374.82 14.17ZM388.26 7.33L388.26 7.33Q389.21 7.33 389.90 7.76Q390.58 8.18 390.94 8.94Q391.31 9.71 391.31 10.73L391.31 10.73L391.31 11.43L386.13 11.43Q386.15 12.75 386.79 13.44Q387.42 14.13 388.58 14.13L388.58 14.13Q389.29 14.13 389.84 14Q390.38 13.87 390.97 13.62L390.97 13.62L390.97 14.62Q390.40 14.87 389.85 14.98Q389.29 15.10 388.53 15.10L388.53 15.10Q387.45 15.10 386.65 14.66Q385.84 14.22 385.40 13.36Q384.95 12.51 384.95 11.27L384.95 11.27Q384.95 10.06 385.36 9.18Q385.77 8.29 386.51 7.81Q387.25 7.33 388.26 7.33ZM388.24 8.26L388.24 8.26Q387.33 8.26 386.79 8.86Q386.25 9.45 386.15 10.52L386.15 10.52L390.12 10.52Q390.11 9.85 389.91 9.34Q389.71 8.83 389.30 8.55Q388.89 8.26 388.24 8.26ZM401.04 14.25L401.04 14.25Q401.04 13.77 401.27 13.57Q401.51 13.37 401.84 13.37L401.84 13.37Q402.19 13.37 402.43 13.57Q402.67 13.77 402.67 14.25L402.67 14.25Q402.67 14.72 402.43 14.94Q402.19 15.16 401.84 15.16L401.84 15.16Q401.51 15.16 401.27 14.94Q401.04 14.72 401.04 14.25Z" transform="translate(0, 0)"></path></g></svg></g> <g transform="rotate(0 287.5000067138672 322.6979991989136)"><svg y="307.608" viewBox="1.7200000286102295 14.760000228881836 437.9200134277344 30.17999839782715" x="68.54" height="30.17999839782715" width="437.9200134277344" style="overflow: visible;"><g fill="#000000" fill-opacity="1" style=""><path d="M22.18 15.33L22.18 15.33Q22.02 16.77 21.96 18.12Q21.89 19.48 21.89 20.17L21.89 20.17Q21.89 20.91 21.94 21.59Q21.98 22.26 22.02 22.71L22.02 22.71L21.07 22.71Q20.83 20.30 20.38 18.88Q19.93 17.47 18.84 16.87Q17.75 16.28 15.58 16.28L15.58 16.28L12.18 16.28Q10.78 16.28 10.07 16.50Q9.35 16.73 9.10 17.45Q8.86 18.16 8.86 19.68L8.86 19.68L8.86 40.02Q8.86 41.49 9.10 42.23Q9.35 42.97 10.07 43.19Q10.78 43.42 12.18 43.42L12.18 43.42L15.17 43.42Q17.75 43.42 19.09 42.72Q20.42 42.02 21.01 40.45Q21.61 38.87 21.89 36.16L21.89 36.16L22.84 36.16Q22.71 37.27 22.71 39.11L22.71 39.11Q22.71 39.89 22.78 41.35Q22.84 42.80 23.00 44.36L23.00 44.36Q20.91 44.28 18.29 44.26Q15.66 44.24 13.61 44.24L13.61 44.24Q12.71 44.24 11.30 44.24Q9.88 44.24 8.24 44.26Q6.60 44.28 4.92 44.30Q3.24 44.32 1.72 44.36L1.72 44.36L1.72 43.54Q3.12 43.46 3.83 43.21Q4.55 42.97 4.80 42.23Q5.04 41.49 5.04 40.02L5.04 40.02L5.04 19.68Q5.04 18.16 4.80 17.45Q4.55 16.73 3.83 16.46Q3.12 16.20 1.72 16.15L1.72 16.15L1.72 15.33Q3.24 15.38 4.92 15.40Q6.60 15.42 8.24 15.44Q9.88 15.46 11.30 15.46Q12.71 15.46 13.61 15.46L13.61 15.46Q15.50 15.46 17.90 15.44Q20.30 15.42 22.18 15.33ZM7.63 29.36L15.13 29.36Q15.13 29.36 15.13 29.77Q15.13 30.18 15.13 30.18L15.13 30.18L7.63 30.18Q7.63 30.18 7.63 29.77Q7.63 29.36 7.63 29.36L7.63 29.36ZM15.38 23.94L16.32 23.94Q16.15 26.28 16.17 27.51Q16.20 28.74 16.20 29.77L16.20 29.77Q16.20 30.79 16.24 32.02Q16.28 33.25 16.44 35.59L16.44 35.59L15.50 35.59Q15.33 34.28 15.11 33.03Q14.88 31.78 14.12 30.98Q13.37 30.18 11.56 30.18L11.56 30.18L11.56 29.36Q12.92 29.36 13.63 28.80Q14.35 28.25 14.68 27.39Q15.01 26.53 15.13 25.60Q15.25 24.68 15.38 23.94L15.38 23.94ZM47.77 14.88L47.77 14.88Q49.81 14.88 50.88 15.35Q51.95 15.83 52.77 16.40L52.77 16.40Q53.26 16.69 53.57 16.83Q53.87 16.97 54.16 16.97L54.16 16.97Q54.57 16.97 54.76 16.52Q54.94 16.07 55.06 15.17L55.06 15.17L56.01 15.17Q55.97 15.87 55.90 16.83Q55.84 17.79 55.82 19.37Q55.80 20.95 55.80 23.53L55.80 23.53L54.86 23.53Q54.73 21.57 54.00 19.76Q53.26 17.96 51.84 16.81Q50.43 15.66 48.13 15.66L48.13 15.66Q45.96 15.66 44.55 16.97Q43.13 18.29 43.13 20.42L43.13 20.42Q43.13 22.26 44.07 23.51Q45.02 24.76 46.60 25.77Q48.17 26.77 50.02 27.92L50.02 27.92Q52.15 29.23 53.81 30.52Q55.47 31.82 56.44 33.37Q57.40 34.93 57.40 37.15L57.40 37.15Q57.40 39.77 56.21 41.49Q55.02 43.21 53.05 44.08Q51.09 44.94 48.71 44.94L48.71 44.94Q46.53 44.94 45.26 44.44Q43.99 43.95 43.09 43.42L43.09 43.42Q42.19 42.84 41.70 42.84L41.70 42.84Q41.29 42.84 41.10 43.30Q40.92 43.75 40.80 44.65L40.80 44.65L39.85 44.65Q39.93 43.79 39.95 42.62Q39.98 41.45 40.00 39.56Q40.02 37.68 40.02 34.81L40.02 34.81L40.96 34.81Q41.12 37.27 41.88 39.40Q42.64 41.53 44.22 42.82Q45.80 44.12 48.42 44.12L48.42 44.12Q49.77 44.12 50.98 43.56Q52.19 43.01 52.97 41.80Q53.75 40.59 53.75 38.66L53.75 38.66Q53.75 36.98 52.95 35.73Q52.15 34.48 50.72 33.39Q49.28 32.31 47.35 31.16L47.35 31.16Q45.43 29.97 43.75 28.74Q42.07 27.51 41.06 25.89Q40.06 24.27 40.06 21.98L40.06 21.98Q40.06 19.56 41.14 17.98Q42.23 16.40 43.99 15.64Q45.76 14.88 47.77 14.88ZM86.92 14.76L86.92 14.76Q89.63 14.76 91.37 15.56Q93.11 16.36 94.46 17.43L94.46 17.43Q95.28 18.04 95.71 17.57Q96.15 17.10 96.31 15.33L96.31 15.33L97.25 15.33Q97.17 16.85 97.13 19.02Q97.09 21.20 97.09 24.76L97.09 24.76L96.15 24.76Q95.86 23.00 95.61 21.96Q95.37 20.91 95.02 20.17Q94.67 19.43 94.09 18.70L94.09 18.70Q92.82 17.02 90.90 16.26Q88.97 15.50 86.84 15.50L86.84 15.50Q84.83 15.50 83.21 16.50Q81.59 17.51 80.42 19.39Q79.25 21.28 78.62 23.94Q77.98 26.61 77.98 29.93L77.98 29.93Q77.98 33.37 78.68 36.02Q79.38 38.66 80.63 40.47Q81.88 42.27 83.58 43.19Q85.28 44.12 87.25 44.12L87.25 44.12Q89.09 44.12 91.10 43.38Q93.11 42.64 94.26 41L94.26 41Q95.16 39.81 95.51 38.42Q95.86 37.02 96.15 34.52L96.15 34.52L97.09 34.52Q97.09 38.25 97.13 40.53Q97.17 42.80 97.25 44.36L97.25 44.36L96.31 44.36Q96.15 42.60 95.76 42.15Q95.37 41.70 94.46 42.27L94.46 42.27Q92.95 43.34 91.25 44.14Q89.54 44.94 86.88 44.94L86.88 44.94Q82.98 44.94 80.05 43.17Q77.12 41.41 75.50 38.09Q73.88 34.77 73.88 30.09L73.88 30.09Q73.88 25.50 75.56 22.06Q77.24 18.61 80.18 16.69Q83.11 14.76 86.92 14.76ZM127.43 14.76L127.43 14.76Q131.32 14.76 134.25 16.52Q137.19 18.29 138.81 21.59Q140.43 24.89 140.43 29.60L140.43 29.60Q140.43 34.19 138.76 37.64Q137.10 41.08 134.15 43.01Q131.20 44.94 127.39 44.94L127.39 44.94Q123.49 44.94 120.56 43.17Q117.63 41.41 116.01 38.09Q114.39 34.77 114.39 30.09L114.39 30.09Q114.39 25.50 116.07 22.06Q117.75 18.61 120.68 16.69Q123.61 14.76 127.43 14.76ZM127.26 15.50L127.26 15.50Q124.60 15.50 122.63 17.34Q120.66 19.19 119.58 22.43Q118.49 25.67 118.49 29.93L118.49 29.93Q118.49 34.28 119.70 37.49Q120.91 40.71 122.98 42.46Q125.05 44.20 127.55 44.20L127.55 44.20Q130.22 44.20 132.18 42.35Q134.15 40.51 135.24 37.25Q136.32 33.99 136.32 29.77L136.32 29.77Q136.32 25.38 135.12 22.18Q133.91 18.98 131.86 17.24Q129.81 15.50 127.26 15.50ZM156.29 16.15L156.29 15.33Q157.15 15.38 158.55 15.42Q159.94 15.46 161.29 15.46L161.29 15.46Q163.22 15.46 164.98 15.42Q166.75 15.38 167.49 15.38L167.49 15.38Q171.79 15.38 173.96 17.18Q176.14 18.98 176.14 21.81L176.14 21.81Q176.14 23.25 175.54 24.62Q174.95 25.99 173.57 27.12Q172.20 28.25 169.90 28.95L169.90 28.95L169.90 29.03Q173.14 29.44 174.97 30.57Q176.79 31.69 177.53 33.21Q178.27 34.73 178.27 36.41L178.27 36.41Q178.27 38.75 177.10 40.53Q175.93 42.31 173.72 43.34Q171.50 44.36 168.43 44.36L168.43 44.36Q167.53 44.36 165.72 44.30Q163.92 44.24 161.38 44.24L161.38 44.24Q159.94 44.24 158.55 44.26Q157.15 44.28 156.29 44.36L156.29 44.36L156.29 43.54Q157.69 43.46 158.40 43.21Q159.12 42.97 159.37 42.23Q159.61 41.49 159.61 40.02L159.61 40.02L159.61 19.68Q159.61 18.16 159.37 17.45Q159.12 16.73 158.40 16.46Q157.69 16.20 156.29 16.15L156.29 16.15ZM166.46 16.15L166.46 16.15Q164.57 16.15 164.00 16.85Q163.43 17.55 163.43 19.68L163.43 19.68L163.43 40.02Q163.43 41.45 163.67 42.19Q163.92 42.93 164.57 43.17Q165.23 43.42 166.50 43.42L166.50 43.42Q170.52 43.42 172.34 41.55Q174.17 39.69 174.17 36.24L174.17 36.24Q174.17 33.09 172.47 31.37Q170.77 29.64 166.87 29.64L166.87 29.64L162.65 29.64Q162.65 29.64 162.65 29.29Q162.65 28.95 162.65 28.95L162.65 28.95L166.17 28.95Q168.59 28.95 169.90 28.02Q171.22 27.10 171.71 25.56Q172.20 24.03 172.20 22.26L172.20 22.26Q172.20 19.23 170.87 17.69Q169.54 16.15 166.46 16.15ZM207.62 14.76L207.62 14.76Q211.52 14.76 214.45 16.52Q217.38 18.29 219.00 21.59Q220.62 24.89 220.62 29.60L220.62 29.60Q220.62 34.19 218.96 37.64Q217.30 41.08 214.35 43.01Q211.40 44.94 207.58 44.94L207.58 44.94Q203.69 44.94 200.76 43.17Q197.83 41.41 196.21 38.09Q194.59 34.77 194.59 30.09L194.59 30.09Q194.59 25.50 196.27 22.06Q197.95 18.61 200.88 16.69Q203.81 14.76 207.62 14.76ZM207.46 15.50L207.46 15.50Q204.80 15.50 202.83 17.34Q200.86 19.19 199.77 22.43Q198.69 25.67 198.69 29.93L198.69 29.93Q198.69 34.28 199.90 37.49Q201.11 40.71 203.18 42.46Q205.25 44.20 207.75 44.20L207.75 44.20Q210.41 44.20 212.38 42.35Q214.35 40.51 215.43 37.25Q216.52 33.99 216.52 29.77L216.52 29.77Q216.52 25.38 215.31 22.18Q214.10 18.98 212.05 17.24Q210.00 15.50 207.46 15.50ZM245.59 14.88L245.59 14.88Q247.64 14.88 248.71 15.35Q249.77 15.83 250.59 16.40L250.59 16.40Q251.08 16.69 251.39 16.83Q251.70 16.97 251.99 16.97L251.99 16.97Q252.40 16.97 252.58 16.52Q252.77 16.07 252.89 15.17L252.89 15.17L253.83 15.17Q253.79 15.87 253.73 16.83Q253.67 17.79 253.65 19.37Q253.63 20.95 253.63 23.53L253.63 23.53L252.68 23.53Q252.56 21.57 251.82 19.76Q251.08 17.96 249.67 16.81Q248.26 15.66 245.96 15.66L245.96 15.66Q243.79 15.66 242.37 16.97Q240.96 18.29 240.96 20.42L240.96 20.42Q240.96 22.26 241.90 23.51Q242.84 24.76 244.42 25.77Q246.00 26.77 247.85 27.92L247.85 27.92Q249.98 29.23 251.64 30.52Q253.30 31.82 254.26 33.37Q255.23 34.93 255.23 37.15L255.23 37.15Q255.23 39.77 254.04 41.49Q252.85 43.21 250.88 44.08Q248.91 44.94 246.53 44.94L246.53 44.94Q244.36 44.94 243.09 44.44Q241.82 43.95 240.92 43.42L240.92 43.42Q240.01 42.84 239.52 42.84L239.52 42.84Q239.11 42.84 238.93 43.30Q238.74 43.75 238.62 44.65L238.62 44.65L237.68 44.65Q237.76 43.79 237.78 42.62Q237.80 41.45 237.82 39.56Q237.84 37.68 237.84 34.81L237.84 34.81L238.78 34.81Q238.95 37.27 239.71 39.40Q240.47 41.53 242.04 42.82Q243.62 44.12 246.25 44.12L246.25 44.12Q247.60 44.12 248.81 43.56Q250.02 43.01 250.80 41.80Q251.58 40.59 251.58 38.66L251.58 38.66Q251.58 36.98 250.78 35.73Q249.98 34.48 248.54 33.39Q247.11 32.31 245.18 31.16L245.18 31.16Q243.25 29.97 241.57 28.74Q239.89 27.51 238.89 25.89Q237.88 24.27 237.88 21.98L237.88 21.98Q237.88 19.56 238.97 17.98Q240.06 16.40 241.82 15.64Q243.58 14.88 245.59 14.88ZM282.57 15.13L282.57 15.13L292.58 40.92Q293.19 42.48 293.97 42.99Q294.75 43.50 295.41 43.54L295.41 43.54L295.41 44.36Q294.59 44.28 293.40 44.26Q292.21 44.24 291.02 44.24L291.02 44.24Q289.42 44.24 288.03 44.26Q286.63 44.28 285.77 44.36L285.77 44.36L285.77 43.54Q287.86 43.46 288.44 42.82Q289.01 42.19 288.19 40.10L288.19 40.10L280.56 19.72L281.22 19.19L274.09 37.72Q273.43 39.36 273.31 40.49Q273.18 41.62 273.53 42.27Q273.88 42.93 274.72 43.21Q275.56 43.50 276.83 43.54L276.83 43.54L276.83 44.36Q275.68 44.28 274.43 44.26Q273.18 44.24 272.12 44.24L272.12 44.24Q271.09 44.24 270.37 44.26Q269.66 44.28 269.04 44.36L269.04 44.36L269.04 43.54Q269.86 43.34 270.72 42.58Q271.58 41.82 272.28 39.98L272.28 39.98L281.92 15.13Q282.08 15.13 282.24 15.13Q282.41 15.13 282.57 15.13ZM275.77 32.55L287.57 32.55L287.57 33.37L275.36 33.37L275.77 32.55ZM342.15 15.33L342.15 15.33L342.15 16.15Q340.75 16.20 340.03 16.46Q339.32 16.73 339.07 17.45Q338.82 18.16 338.82 19.68L338.82 19.68L338.82 40.02Q338.82 41.49 339.07 42.23Q339.32 42.97 340.03 43.19Q340.75 43.42 342.15 43.42L342.15 43.42L345.14 43.42Q347.07 43.42 348.27 43.01Q349.48 42.60 350.20 41.72Q350.92 40.84 351.29 39.36Q351.66 37.88 351.86 35.75L351.86 35.75L352.81 35.75Q352.68 37.02 352.68 39.11L352.68 39.11Q352.68 39.89 352.74 41.35Q352.81 42.80 352.97 44.36L352.97 44.36Q350.88 44.28 348.25 44.26Q345.63 44.24 343.58 44.24L343.58 44.24Q342.68 44.24 341.26 44.24Q339.85 44.24 338.21 44.26Q336.57 44.28 334.89 44.30Q333.21 44.32 331.69 44.36L331.69 44.36L331.69 43.54Q333.08 43.46 333.80 43.21Q334.52 42.97 334.77 42.23Q335.01 41.49 335.01 40.02L335.01 40.02L335.01 19.68Q335.01 18.16 334.77 17.45Q334.52 16.73 333.80 16.46Q333.08 16.20 331.69 16.15L331.69 16.15L331.69 15.33Q332.55 15.38 333.95 15.42Q335.34 15.46 336.94 15.46L336.94 15.46Q338.37 15.46 339.79 15.42Q341.20 15.38 342.15 15.33ZM379.62 15.13L379.62 15.13L389.62 40.92Q390.24 42.48 391.02 42.99Q391.80 43.50 392.45 43.54L392.45 43.54L392.45 44.36Q391.63 44.28 390.44 44.26Q389.25 44.24 388.07 44.24L388.07 44.24Q386.47 44.24 385.07 44.26Q383.68 44.28 382.82 44.36L382.82 44.36L382.82 43.54Q384.91 43.46 385.48 42.82Q386.06 42.19 385.24 40.10L385.24 40.10L377.61 19.72L378.27 19.19L371.13 37.72Q370.48 39.36 370.35 40.49Q370.23 41.62 370.58 42.27Q370.93 42.93 371.77 43.21Q372.61 43.50 373.88 43.54L373.88 43.54L373.88 44.36Q372.73 44.28 371.48 44.26Q370.23 44.24 369.16 44.24L369.16 44.24Q368.14 44.24 367.42 44.26Q366.70 44.28 366.09 44.36L366.09 44.36L366.09 43.54Q366.91 43.34 367.77 42.58Q368.63 41.82 369.33 39.98L369.33 39.98L378.96 15.13Q379.13 15.13 379.29 15.13Q379.46 15.13 379.62 15.13ZM372.81 32.55L384.62 32.55L384.62 33.37L372.40 33.37L372.81 32.55ZM439.64 15.33L439.64 15.33L439.64 16.15Q438.86 16.32 437.92 17.08Q436.98 17.84 436.40 19.72L436.40 19.72L428.66 44.57Q428.57 44.57 428.49 44.57Q428.41 44.57 428.33 44.57L428.33 44.57Q428.25 44.57 428.16 44.57Q428.08 44.57 428.00 44.57L428.00 44.57L419.31 18.78Q418.77 17.18 418.12 16.69Q417.46 16.20 416.89 16.15L416.89 16.15L416.89 15.33Q417.63 15.38 418.73 15.42Q419.84 15.46 420.87 15.46L420.87 15.46Q422.46 15.46 423.86 15.42Q425.25 15.38 426.11 15.33L426.11 15.33L426.11 16.15Q424.88 16.20 424.17 16.40Q423.45 16.61 423.35 17.30Q423.24 18.00 423.74 19.60L423.74 19.60L429.84 38.50L429.27 38.99L434.68 21.98Q435.42 19.72 435.36 18.47Q435.30 17.22 434.44 16.71Q433.58 16.20 431.85 16.15L431.85 16.15L431.85 15.33Q433.04 15.38 434.27 15.42Q435.50 15.46 436.57 15.46L436.57 15.46Q437.63 15.46 438.33 15.42Q439.03 15.38 439.64 15.33ZM410.98 15.33L410.98 15.33L410.98 16.15Q409.92 16.24 409.45 16.56Q408.98 16.89 409.00 17.61Q409.02 18.33 409.43 19.60L409.43 19.60L415.78 38.99L414.76 40.02L420.50 21.69L421.11 22.67L414.35 44.57Q414.26 44.57 414.18 44.57Q414.10 44.57 414.02 44.57L414.02 44.57Q413.94 44.57 413.85 44.57Q413.77 44.57 413.69 44.57L413.69 44.57L405.00 18.78Q404.47 17.18 403.65 16.69Q402.83 16.20 402.17 16.15L402.17 16.15L402.17 15.33Q402.99 15.38 404.20 15.42Q405.41 15.46 406.56 15.46L406.56 15.46Q407.91 15.46 409.08 15.42Q410.25 15.38 410.98 15.33Z" transform="translate(0, 0)"></path></g></svg></g></svg>